<svg xmlns="http://www.w3.org/2000/svg" viewBox="0 0 600 360">
  <defs>
    <linearGradient id="cg-bg" x1="0%" y1="0%" x2="30%" y2="100%">
      <stop offset="0%" stop-color="#020810"/>
      <stop offset="100%" stop-color="#041420"/>
    </linearGradient>
    <filter id="cg-glow">
      <feGaussianBlur stdDeviation="4" result="blur"/>
      <feMerge><feMergeNode in="blur"/><feMergeNode in="SourceGraphic"/></feMerge>
    </filter>
  </defs>
  <rect width="600" height="360" fill="url(#cg-bg)"/>
  
        <polygon points="300,100 400,200 300,200" fill="#0880c0" opacity="0.5"/>
        <polygon points="300,100 200,200 300,200" fill="#0880c0" opacity="0.4"/>
        <polygon points="150,200 250,280 150,280" fill="#0880c0" opacity="0.4"/>
        <polygon points="450,200 350,280 450,280" fill="#0880c0" opacity="0.38"/>
        <rect x="260" y="180" width="80" height="80" fill="#0880c0" opacity="0.25" transform="rotate(15,300,220)"/>
        <circle cx="300" cy="150" r="5" fill="#00c0e0" opacity="0.8"/>
        <circle cx="200" cy="240" r="4" fill="#00c0e0" opacity="0.6"/>
        <circle cx="400" cy="240" r="4" fill="#00c0e0" opacity="0.6"/>
        <line x1="300" y1="100" x2="200" y2="280" stroke="#00c0e0" stroke-width="1" opacity="0.2"/>
        <line x1="300" y1="100" x2="400" y2="280" stroke="#00c0e0" stroke-width="1" opacity="0.2"/>
  <rect x="0" y="320" width="600" height="40" fill="#020810" opacity="0.82"/>
  <text x="20" y="344" font-family="Georgia, serif" font-size="13" fill="#40b0f0" opacity="0.9" letter-spacing="3">SCI-FI</text>
  <text x="580" y="344" font-family="Georgia, serif" font-size="11" fill="#00c0e0" opacity="0.75" text-anchor="end" letter-spacing="1">TENSE</text>
</svg>